:FULLY-SPECIFIED
:FORCE-ALL-JOINTS-BE-3DOF
:DEGREES
404
root 9.69258 16.8759 20.446 6.56218 -1.5608 -7.60747
lfemur -43.0065 -3.65044 -8.73768
ltibia 21.114 -0 0
lfoot -15.6408 13.3384 -0.0215601
ltoes -12.718 0 0
rfemur 17.6149 5.86663 33.1478
rtibia -1.37824e-14 0 0
rfoot -7.71643 6.92048 6.14421e-05
rtoes -11.4532 0 0
lowerback -8.20851 3.22972 3.42667
upperback 0.175023 3.77953 4.04535
thorax 4.73355 1.90476 2.75388
lowerneck -19.061 -6.11054 -13.3595
upperneck 21.1485 -7.81645 12.9868
head 11.0664 -3.1654 5.78683
lclavicle -2.26367e-14 -2.48481e-14 0
lhumerus -53.6326 -9.30464 96.383
lradius 27.1173 -0 0
lwrist 8.11082 0 0
lhand -11.3417 -27.641 0.00827214
lfingers 7.12502 0 0
lthumb 14.6911 1.81631 0.00746329
rclavicle -2.26367e-14 -2.48481e-14 0
rhumerus -27.2794 15.1245 -84.9885
rradius 39.4998 -0 0
rwrist -17.9964 0 0
rhand -30.6571 -20.9057 -0.00245952
rfingers 7.12502 0 0
rthumb -3.95205 -50.8483 -0.00241005
405
root 9.70762 16.85 20.6167 6.64078 -1.57435 -7.66859
lfemur -42.9145 -2.8144 -9.29682
ltibia 21.7671 -0 0
lfoot -15.0959 12.4316 -0.0344991
ltoes -12.6352 0 0
rfemur 18.1522 5.82763 33.1537
rtibia -1.80231e-14 0 0
rfoot -7.42749 6.92536 9.83079e-05
rtoes -12.3039 0 0
lowerback -8.3298 3.25992 3.41328
upperback 0.125821 3.81703 4.02121
thorax 4.75016 1.92298 2.74678
lowerneck -19.1246 -6.13218 -13.335
upperneck 21.1891 -7.84771 12.9739
head 11.097 -3.17678 5.77344
lclavicle -6.4357e-15 -9.1441e-15 0
lhumerus -53.6906 -9.25506 96.3238
lradius 27.0236 -0 0
lwrist 7.7808 0 0
lhand -10.9402 -27.1688 0.0132358
lfingers 7.12502 0 0
lthumb 15.0778 2.25864 0.0119416
rclavicle -6.4357e-15 -9.1441e-15 0
rhumerus -27.6532 14.9639 -85.2125
rradius 39.2987 -0 0
rwrist -17.8207 0 0
rhand -30.4294 -21.1533 -0.00393526
rfingers 7.12502 0 0
rthumb -3.73216 -51.0995 -0.00385612
406
root 9.72266 16.8241 20.7874 6.71939 -1.58781 -7.72972
lfemur -42.8308 -1.9775 -9.85427
ltibia 22.4202 -0 0
lfoot -14.5509 11.5247 -0.0388126
ltoes -12.5525 0 0
rfemur 18.6895 5.78858 33.1593
rtibia -2.22639e-14 0 0
rfoot -7.13854 6.93023 0.000110597
rtoes -13.1545 0 0
lowerback -8.4511 3.2901 3.39983
upperback 0.0766002 3.8545 3.99704
thorax 4.76676 1.9412 2.73968
lowerneck -19.1881 -6.15378 -13.3104
upperneck 21.2297 -7.87896 12.961
head 11.1275 -3.18815 5.76004
lclavicle 9.76525e-15 6.5599e-15 0
lhumerus -53.7487 -9.20554 96.2646
lradius 26.9298 -0 0
lwrist 7.45077 0 0
lhand -10.5387 -26.6966 0.0148904
lfingers 7.12502 0 0
lthumb 15.4646 2.70098 0.0134344
rclavicle 9.76525e-15 6.5599e-15 0
rhumerus -28.026 14.802 -85.4353
rradius 39.0975 -0 0
rwrist -17.6451 0 0
rhand -30.2017 -21.4009 -0.00442718
rfingers 7.12502 0 0
rthumb -3.51226 -51.3507 -0.00433814
407
root 9.73769 16.7981 20.9582 6.79802 -1.60119 -7.79087
lfemur -42.7552 -1.13983 -10.4103
ltibia 23.0733 -0 0
lfoot -14.0059 10.6178 -0.0344991
ltoes -12.4698 0 0
rfemur 19.2267 5.74947 33.1644
rtibia -2.65046e-14 0 0
rfoot -6.84959 6.9351 9.83079e-05
rtoes -14.0051 0 0
lowerback -8.5724 3.32024 3.38631
upperback 0.0273617 3.89196 3.97284
thorax 4.78337 1.95943 2.73259
lowerneck -19.2517 -6.17536 -13.2858
upperneck 21.2702 -7.9102 12.9481
head 11.158 -3.19952 5.74664
lclavicle 2.59662e-14 2.22639e-14 0
lhumerus -53.8068 -9.15608 96.2053
lradius 26.836 -0 0
lwrist 7.12074 0 0
lhand -10.1372 -26.2244 0.0132358
lfingers 7.12502 0 0
lthumb 15.8513 3.14333 0.0119416
rclavicle 2.59662e-14 2.22639e-14 0
rhumerus -28.398 14.6386 -85.6568
rradius 38.8963 -0 0
rwrist -17.4695 0 0
rhand -29.974 -21.6484 -0.00393526
rfingers 7.12502 0 0
rthumb -3.29236 -51.6018 -0.00385612
408
root 9.75273 16.7722 21.129 6.87667 -1.61448 -7.85204
lfemur -42.6877 -0.301472 -10.9651
ltibia 23.7264 -0 0
lfoot -13.461 9.711 -0.0215601
ltoes -12.387 0 0
rfemur 19.7639 5.71032 33.1693
rtibia -3.07454e-14 0 0
rfoot -6.56065 6.93998 6.14421e-05
rtoes -14.8558 0 0
lowerback -8.69372 3.35036 3.37273
upperback -0.021895 3.9294 3.9486
thorax 4.79997 1.97765 2.72551
lowerneck -19.3153 -6.19691 -13.2612
upperneck 21.3108 -7.94143 12.9352
head 11.1886 -3.21087 5.73323
lclavicle 4.21672e-14 3.79679e-14 0
lhumerus -53.865 -9.10667 96.146
lradius 26.7423 -0 0
lwrist 6.79072 0 0
lhand -9.7357 -25.7522 0.00827214
lfingers 7.12502 0 0
lthumb 16.238 3.58566 0.00746329
rclavicle 4.21672e-14 3.79679e-14 0
rhumerus -28.7689 14.4739 -85.877
rradius 38.6952 -0 0
rwrist -17.2938 0 0
rhand -29.7463 -21.896 -0.00245952
rfingers 7.12502 0 0
rthumb -3.07247 -51.853 -0.00241005
409
root 9.76776 16.7463 21.2997 6.95533 -1.62769 -7.91323
lfemur -42.6284 0.537503 -11.5189
ltibia 24.3795 0 0
lfoot -12.9164 8.80434 0
ltoes -12.3043 0 0
rfemur 20.301 5.67112 33.1737
rtibia -3.49861e-14 0 0
rfoot -6.2717 6.94485 0
rtoes -15.7064 0 0
lowerback -8.81505 3.38045 3.35908
upperback -0.0711697 3.96681 3.92433
thorax 4.81657 1.99588 2.71843
lowerneck -19.3789 -6.21844 -13.2366
upperneck 21.3514 -7.97265 12.9222
head 11.2191 -3.22222 5.71982
lclavicle 5.83681e-14 5.36719e-14 0
lhumerus -53.9232 -9.05733 96.0867
lradius 26.6485 0 0
lwrist 6.46069 0 0
lhand -9.33428 -25.28 0
lfingers 7.12502 0 0
lthumb 16.6246 4.02795 0
rclavicle 5.83681e-14 5.36719e-14 0
rhumerus -29.139 14.3078 -86.096
rradius 38.494 0 0
rwrist -17.1182 0 0
rhand -29.5186 -22.1435 0
rfingers 7.12502 0 0
rthumb -2.85258 -52.1042 0
410
root 9.79388 16.7496 21.4704 7.13112 -1.62032 -7.66119
lfemur -42.7156 1.00198 -12.1585
ltibia 24.8702 -0 0
lfoot -10.5854 9.27534 0.0480777
ltoes -12.4003 0 0
rfemur 20.6632 5.61633 32.7539
rtibia -2.70347e-14 0 0
rfoot -5.28765 6.85971 -0.00365792
rtoes -15.6156 0 0
lowerback -8.89323 3.36968 3.15101
upperback -0.198622 3.98201 3.77391
thorax 4.72274 2.00038 2.67802
lowerneck -19.4393 -6.27018 -13.3301
upperneck 21.3796 -8.05426 13.0739
head 11.2672 -3.24765 5.78199
lclavicle 4.9547e-14 4.52567e-14 0
lhumerus -53.77 -8.90273 95.8621
lradius 26.3555 -0 0
lwrist 6.14793 0 0
lhand -8.64203 -24.5304 0.0226562
lfingers 7.12502 0 0
lthumb 17.2905 4.71369 0.0199351
rclavicle 4.9547e-14 4.52567e-14 0
rhumerus -29.6757 14.0105 -86.3489
rradius 38.1964 -0 0
rwrist -16.6923 0 0
rhand -29.4004 -22.4664 -0.00166519
rfingers 7.12502 0 0
rthumb -2.73842 -52.4284 -0.00161501
411
root 9.82 16.7529 21.6412 7.30694 -1.61371 -7.40912
lfemur -42.8081 1.46545 -12.7989
ltibia 25.361 -0 0
lfoot -8.25413 9.74792 0.0769575
ltoes -12.4963 0 0
rfemur 21.0257 5.56419 32.3339
rtibia -1.90833e-14 0 0
rfoot -4.3036 6.77452 -0.00585311
rtoes -15.5248 0 0
lowerback -8.97137 3.35862 2.94296
upperback -0.326117 3.99687 3.62345
thorax 4.62891 2.0048 2.63761
lowerneck -19.4996 -6.32202 -13.4236
upperneck 21.4076 -8.13595 13.2256
head 11.3154 -3.27313 5.84415
lclavicle 4.0726e-14 3.68415e-14 0
lhumerus -53.6174 -8.74755 95.638
lradius 26.0626 -0 0
lwrist 5.83516 0 0
lhand -7.94955 -23.7806 0.0362527
lfingers 7.12502 0 0
lthumb 17.9565 5.39961 0.0318984
rclavicle 4.0726e-14 3.68415e-14 0
rhumerus -30.2103 13.711 -86.5985
rradius 37.8988 -0 0
rwrist -16.2663 0 0
rhand -29.2822 -22.7892 -0.00266433
rfingers 7.12502 0 0
rthumb -2.62425 -52.7526 -0.00258405
